<?xml version="1.0" encoding="UTF-8" standalone="no"?>
<svg width="1024px" height="1024px" viewBox="0 0 1024 1024" version="1.1" xmlns:svg="http://www.w3.org/2000/svg" xmlns:xlink="http://www.w3.org/1999/xlink">
  <title>Void Incournic Safari Mask Icon</title>
  <desc>Created with Inkscape</desc>
  <defs></defs>
  <g id="Page-1" style="fill:none;fill-rule:evenodd;stroke:none;stroke-width:1">
    <svg:path id="Shape" d="M 512,-2.2e-5 A 511.99999,511.99999 0 0 0 0,511.99998 511.99999,511.99999 0 0 0 512,1024 511.99999,511.99999 0 0 0 1024,511.99998 511.99999,511.99999 0 0 0 512,-2.2e-5 Z m 0,64.000002 a 447.99999,447.99999 0 0 1 251.78125,77.52734 L 608,415.99998 882.1543,260.39842 A 447.99999,447.99999 0 0 1 960,511.99998 447.99999,447.99999 0 0 1 882.47266,763.78123 L 608,607.99998 757.28711,886.66795 A 447.99999,447.99999 0 0 1 512,960 447.99999,447.99999 0 0 1 260.21875,882.47263 L 416,607.99998 141.84766,763.59959 A 447.99999,447.99999 0 0 1 64,511.99998 447.99999,447.99999 0 0 1 141.52734,260.21873 L 416,415.99998 260.39844,141.84568 A 447.99999,447.99999 0 0 1 512,63.99998 Z m 0,44 a 88,88 0 0 0 -88,88 88,88 0 0 0 88,88 88,88 0 0 0 88,-88 88,88 0 0 0 -88,-88 z m 0,301.56836 -83.50586,48.88086 H 302.45117 V 565.54881 H 428.49414 L 512,614.42967 595.50586,565.54881 H 721.54883 V 458.4492 H 595.50586 Z m 0,12.86133 80.49414,47.11914 H 710.45117 V 554.4492 H 592.49609 l -1.29882,0.75976 L 512,601.56834 431.50586,554.4492 H 313.54883 v -84.90039 h 117.95703 z m -316,1.57031 a 88,88 0 0 0 -88,88 88,88 0 0 0 88,88 88,88 0 0 0 88,-88 88,88 0 0 0 -88,-88 z m 632,0 a 88,88 0 0 0 -88,88 88,88 0 0 0 88,88 88,88 0 0 0 88,-88 88,88 0 0 0 -88,-88 z M 512,434.67576 A 25.077553,25.077553 0 0 0 486.92188,459.75388 25.077553,25.077553 0 0 0 512,484.83201 25.077553,25.077553 0 0 0 537.07812,459.75388 25.077553,25.077553 0 0 0 512,434.67576 Z m -48.06445,52.24609 a 25.077553,25.077553 0 0 0 -25.07813,25.07813 25.077553,25.077553 0 0 0 25.07813,25.07617 25.077553,25.077553 0 0 0 25.07617,-25.07617 25.077553,25.077553 0 0 0 -25.07617,-25.07813 z m 95.08398,0 a 25.077553,25.077553 0 0 0 -25.07617,25.07813 25.077553,25.077553 0 0 0 25.07617,25.07617 25.077553,25.077553 0 0 0 25.07813,-25.07617 25.077553,25.077553 0 0 0 -25.07813,-25.07813 z M 512,539.16599 A 25.077553,25.077553 0 0 0 486.92188,564.24412 25.077553,25.077553 0 0 0 512,589.32224 25.077553,25.077553 0 0 0 537.07812,564.24412 25.077553,25.077553 0 0 0 512,539.16599 Z m 0,200.83399 a 88,88 0 0 0 -88,88 88,88 0 0 0 88,88 88,88 0 0 0 88,-88 88,88 0 0 0 -88,-88 z" style="fill:#000000"/>
  </g>
</svg>
